<mxfile host="app.diagrams.net" modified="2020-05-25T20:06:23.047Z" agent="5.0 (Macintosh; Intel Mac OS X 10_15_3) AppleWebKit/605.1.15 (KHTML, like Gecko) Version/13.0.5 Safari/605.1.15" etag="m_mfkkosDFp0Uz4DMWu7" version="13.1.3" type="github">
  <diagram id="IXUd6YZABCM3kFO6xBRe" name="Page-1">
    <mxGraphModel dx="2427" dy="2075" grid="1" gridSize="10" guides="1" tooltips="1" connect="1" arrows="1" fold="1" page="1" pageScale="1" pageWidth="850" pageHeight="1100" math="0" shadow="0">
      <root>
        <mxCell id="0" />
        <mxCell id="1" parent="0" />
        <mxCell id="eOLcp72nQjabFm5tdHdw-1" value="" style="rounded=1;whiteSpace=wrap;html=1;" parent="1" vertex="1">
          <mxGeometry x="-790" y="120" width="320" height="500" as="geometry" />
        </mxCell>
        <mxCell id="eOLcp72nQjabFm5tdHdw-2" value="LOGO" style="whiteSpace=wrap;html=1;aspect=fixed;" parent="1" vertex="1">
          <mxGeometry x="-690" y="300" width="120" height="120" as="geometry" />
        </mxCell>
        <mxCell id="eOLcp72nQjabFm5tdHdw-3" value="Splash Screen" style="text;html=1;strokeColor=none;fillColor=none;align=center;verticalAlign=middle;whiteSpace=wrap;rounded=0;fontSize=14;" parent="1" vertex="1">
          <mxGeometry x="-700" y="90" width="120" height="40" as="geometry" />
        </mxCell>
        <mxCell id="eOLcp72nQjabFm5tdHdw-5" value="" style="rounded=1;whiteSpace=wrap;html=1;" parent="1" vertex="1">
          <mxGeometry x="-400" y="120" width="320" height="500" as="geometry" />
        </mxCell>
        <mxCell id="eOLcp72nQjabFm5tdHdw-6" value="" style="endArrow=classic;html=1;fontSize=14;" parent="1" source="eOLcp72nQjabFm5tdHdw-1" target="eOLcp72nQjabFm5tdHdw-5" edge="1">
          <mxGeometry width="50" height="50" relative="1" as="geometry">
            <mxPoint x="-360" y="400" as="sourcePoint" />
            <mxPoint x="-310" y="350" as="targetPoint" />
          </mxGeometry>
        </mxCell>
        <mxCell id="eOLcp72nQjabFm5tdHdw-7" value="LOGO" style="whiteSpace=wrap;html=1;aspect=fixed;" parent="1" vertex="1">
          <mxGeometry x="-300" y="170" width="110" height="110" as="geometry" />
        </mxCell>
        <mxCell id="eOLcp72nQjabFm5tdHdw-8" value="&lt;font style=&quot;font-size: 13px&quot;&gt;Email&lt;/font&gt;" style="rounded=0;whiteSpace=wrap;html=1;fontSize=14;align=left;" parent="1" vertex="1">
          <mxGeometry x="-335" y="300" width="180" height="40" as="geometry" />
        </mxCell>
        <mxCell id="eOLcp72nQjabFm5tdHdw-9" value="&lt;font style=&quot;font-size: 13px&quot;&gt;Password&lt;/font&gt;" style="rounded=0;whiteSpace=wrap;html=1;fontSize=14;align=left;" parent="1" vertex="1">
          <mxGeometry x="-335" y="360" width="180" height="40" as="geometry" />
        </mxCell>
        <mxCell id="eOLcp72nQjabFm5tdHdw-23" style="edgeStyle=orthogonalEdgeStyle;rounded=0;orthogonalLoop=1;jettySize=auto;html=1;entryX=0.942;entryY=0.022;entryDx=0;entryDy=0;entryPerimeter=0;fontSize=14;fontColor=#0000FF;" parent="1" source="eOLcp72nQjabFm5tdHdw-10" target="eOLcp72nQjabFm5tdHdw-21" edge="1">
          <mxGeometry relative="1" as="geometry" />
        </mxCell>
        <mxCell id="eOLcp72nQjabFm5tdHdw-10" value="Login" style="rounded=1;whiteSpace=wrap;html=1;fontSize=14;" parent="1" vertex="1">
          <mxGeometry x="-290" y="490" width="90" height="40" as="geometry" />
        </mxCell>
        <mxCell id="eOLcp72nQjabFm5tdHdw-24" style="edgeStyle=orthogonalEdgeStyle;rounded=0;orthogonalLoop=1;jettySize=auto;html=1;fontSize=14;fontColor=#0000FF;" parent="1" source="eOLcp72nQjabFm5tdHdw-11" target="eOLcp72nQjabFm5tdHdw-13" edge="1">
          <mxGeometry relative="1" as="geometry">
            <Array as="points">
              <mxPoint x="-110" y="430" />
              <mxPoint x="-110" y="370" />
            </Array>
          </mxGeometry>
        </mxCell>
        <mxCell id="eOLcp72nQjabFm5tdHdw-11" value="You Forget Password?" style="text;html=1;strokeColor=none;fillColor=none;align=center;verticalAlign=middle;whiteSpace=wrap;rounded=0;fontSize=14;fontColor=#0000FF;" parent="1" vertex="1">
          <mxGeometry x="-320" y="420" width="150" height="20" as="geometry" />
        </mxCell>
        <mxCell id="eOLcp72nQjabFm5tdHdw-12" value="Login Screen" style="text;html=1;strokeColor=none;fillColor=none;align=center;verticalAlign=middle;whiteSpace=wrap;rounded=0;fontSize=14;" parent="1" vertex="1">
          <mxGeometry x="-320" y="90" width="120" height="40" as="geometry" />
        </mxCell>
        <mxCell id="eOLcp72nQjabFm5tdHdw-13" value="" style="rounded=1;whiteSpace=wrap;html=1;" parent="1" vertex="1">
          <mxGeometry x="10" y="120" width="320" height="500" as="geometry" />
        </mxCell>
        <mxCell id="eOLcp72nQjabFm5tdHdw-14" value="LOGO" style="whiteSpace=wrap;html=1;aspect=fixed;" parent="1" vertex="1">
          <mxGeometry x="115" y="160" width="110" height="110" as="geometry" />
        </mxCell>
        <mxCell id="eOLcp72nQjabFm5tdHdw-16" value="Forgetting Password Screen" style="text;html=1;strokeColor=none;fillColor=none;align=center;verticalAlign=middle;whiteSpace=wrap;rounded=0;fontSize=14;" parent="1" vertex="1">
          <mxGeometry x="80" y="90" width="180" height="40" as="geometry" />
        </mxCell>
        <mxCell id="eOLcp72nQjabFm5tdHdw-17" value="&lt;font style=&quot;font-size: 13px&quot;&gt;Email&lt;/font&gt;" style="rounded=0;whiteSpace=wrap;html=1;fontSize=14;align=left;" parent="1" vertex="1">
          <mxGeometry x="80" y="300" width="180" height="40" as="geometry" />
        </mxCell>
        <mxCell id="eOLcp72nQjabFm5tdHdw-18" value="Continue" style="rounded=1;whiteSpace=wrap;html=1;fontSize=14;" parent="1" vertex="1">
          <mxGeometry x="125" y="360" width="90" height="40" as="geometry" />
        </mxCell>
        <mxCell id="eOLcp72nQjabFm5tdHdw-21" value="" style="rounded=1;whiteSpace=wrap;html=1;" parent="1" vertex="1">
          <mxGeometry x="-400" y="661" width="320" height="500" as="geometry" />
        </mxCell>
        <mxCell id="eOLcp72nQjabFm5tdHdw-22" value="LOGO" style="whiteSpace=wrap;html=1;aspect=fixed;" parent="1" vertex="1">
          <mxGeometry x="-300" y="690" width="110" height="110" as="geometry" />
        </mxCell>
        <mxCell id="eOLcp72nQjabFm5tdHdw-25" value="Home Screen" style="text;html=1;strokeColor=none;fillColor=none;align=center;verticalAlign=middle;whiteSpace=wrap;rounded=0;fontSize=14;" parent="1" vertex="1">
          <mxGeometry x="-300" y="630" width="120" height="40" as="geometry" />
        </mxCell>
        <mxCell id="eOLcp72nQjabFm5tdHdw-55" style="edgeStyle=orthogonalEdgeStyle;rounded=0;orthogonalLoop=1;jettySize=auto;html=1;entryX=0;entryY=0.5;entryDx=0;entryDy=0;fontSize=14;fontColor=#CCCCCC;" parent="1" source="eOLcp72nQjabFm5tdHdw-26" target="eOLcp72nQjabFm5tdHdw-53" edge="1">
          <mxGeometry relative="1" as="geometry" />
        </mxCell>
        <mxCell id="eOLcp72nQjabFm5tdHdw-26" value="&lt;font color=&quot;#000000&quot;&gt;Scan Patient&#39;s Barcode&lt;/font&gt;" style="rounded=1;whiteSpace=wrap;html=1;fontSize=14;fontColor=#0000FF;" parent="1" vertex="1">
          <mxGeometry x="-315" y="886" width="150" height="50" as="geometry" />
        </mxCell>
        <mxCell id="eOLcp72nQjabFm5tdHdw-33" style="edgeStyle=orthogonalEdgeStyle;rounded=0;orthogonalLoop=1;jettySize=auto;html=1;entryX=1;entryY=0.35;entryDx=0;entryDy=0;entryPerimeter=0;fontSize=14;fontColor=#0000FF;" parent="1" source="eOLcp72nQjabFm5tdHdw-27" target="eOLcp72nQjabFm5tdHdw-29" edge="1">
          <mxGeometry relative="1" as="geometry" />
        </mxCell>
        <mxCell id="eOLcp72nQjabFm5tdHdw-27" value="&lt;font color=&quot;#000000&quot;&gt;Edit/View Profile&lt;/font&gt;" style="rounded=1;whiteSpace=wrap;html=1;fontSize=14;fontColor=#0000FF;" parent="1" vertex="1">
          <mxGeometry x="-315" y="820" width="150" height="50" as="geometry" />
        </mxCell>
        <mxCell id="eOLcp72nQjabFm5tdHdw-44" style="edgeStyle=orthogonalEdgeStyle;rounded=0;orthogonalLoop=1;jettySize=auto;html=1;fontSize=14;fontColor=#0000FF;entryX=0.298;entryY=-0.003;entryDx=0;entryDy=0;entryPerimeter=0;" parent="1" source="eOLcp72nQjabFm5tdHdw-28" target="eOLcp72nQjabFm5tdHdw-42" edge="1">
          <mxGeometry relative="1" as="geometry">
            <mxPoint x="-240" y="1220" as="targetPoint" />
          </mxGeometry>
        </mxCell>
        <mxCell id="eOLcp72nQjabFm5tdHdw-28" value="&lt;font color=&quot;#000000&quot;&gt;Make a Report&lt;/font&gt;" style="rounded=1;whiteSpace=wrap;html=1;fontSize=14;fontColor=#0000FF;" parent="1" vertex="1">
          <mxGeometry x="-315" y="950" width="150" height="50" as="geometry" />
        </mxCell>
        <mxCell id="eOLcp72nQjabFm5tdHdw-29" value="" style="rounded=1;whiteSpace=wrap;html=1;" parent="1" vertex="1">
          <mxGeometry x="-800" y="670" width="320" height="500" as="geometry" />
        </mxCell>
        <mxCell id="eOLcp72nQjabFm5tdHdw-32" value="Edit/View Profile Screen" style="text;html=1;strokeColor=none;fillColor=none;align=center;verticalAlign=middle;whiteSpace=wrap;rounded=0;fontSize=14;" parent="1" vertex="1">
          <mxGeometry x="-720" y="630" width="120" height="40" as="geometry" />
        </mxCell>
        <mxCell id="eOLcp72nQjabFm5tdHdw-35" value="&lt;span style=&quot;font-size: 13px&quot;&gt;First Name&lt;/span&gt;" style="rounded=0;whiteSpace=wrap;html=1;fontSize=14;align=left;" parent="1" vertex="1">
          <mxGeometry x="-730" y="820" width="180" height="40" as="geometry" />
        </mxCell>
        <mxCell id="eOLcp72nQjabFm5tdHdw-36" value="&lt;font style=&quot;font-size: 13px&quot;&gt;Password&lt;/font&gt;" style="rounded=0;whiteSpace=wrap;html=1;fontSize=14;align=left;" parent="1" vertex="1">
          <mxGeometry x="-730" y="920" width="180" height="40" as="geometry" />
        </mxCell>
        <mxCell id="eOLcp72nQjabFm5tdHdw-38" value="&lt;span style=&quot;font-size: 13px&quot;&gt;Phone Number&lt;/span&gt;" style="rounded=0;whiteSpace=wrap;html=1;fontSize=14;align=left;" parent="1" vertex="1">
          <mxGeometry x="-730" y="970" width="180" height="40" as="geometry" />
        </mxCell>
        <mxCell id="eOLcp72nQjabFm5tdHdw-39" value="&lt;span style=&quot;font-size: 13px&quot;&gt;Specialization&lt;/span&gt;" style="rounded=0;whiteSpace=wrap;html=1;fontSize=14;align=left;" parent="1" vertex="1">
          <mxGeometry x="-730" y="1070" width="180" height="40" as="geometry" />
        </mxCell>
        <mxCell id="eOLcp72nQjabFm5tdHdw-40" value="" style="triangle;whiteSpace=wrap;html=1;fontSize=14;fontColor=#0000FF;direction=south;" parent="1" vertex="1">
          <mxGeometry x="-580" y="1077.5" width="30" height="25" as="geometry" />
        </mxCell>
        <mxCell id="eOLcp72nQjabFm5tdHdw-42" value="" style="rounded=1;whiteSpace=wrap;html=1;" parent="1" vertex="1">
          <mxGeometry x="-400" y="1230" width="320" height="500" as="geometry" />
        </mxCell>
        <mxCell id="eOLcp72nQjabFm5tdHdw-45" value="&lt;div style=&quot;text-align: justify&quot;&gt;&lt;br&gt;&lt;/div&gt;" style="rounded=0;whiteSpace=wrap;html=1;align=left;" parent="1" vertex="1">
          <mxGeometry x="-350" y="1270" width="240" height="350" as="geometry" />
        </mxCell>
        <mxCell id="eOLcp72nQjabFm5tdHdw-47" value="Submit" style="rounded=1;whiteSpace=wrap;html=1;fontSize=14;" parent="1" vertex="1">
          <mxGeometry x="-200" y="1640" width="90" height="40" as="geometry" />
        </mxCell>
        <mxCell id="eOLcp72nQjabFm5tdHdw-48" value="Description" style="text;html=1;strokeColor=none;fillColor=none;align=center;verticalAlign=middle;whiteSpace=wrap;rounded=0;fontSize=14;fontColor=#000000;" parent="1" vertex="1">
          <mxGeometry x="-250" y="1435" width="40" height="20" as="geometry" />
        </mxCell>
        <mxCell id="eOLcp72nQjabFm5tdHdw-49" value="Making Reports Screen" style="text;html=1;strokeColor=none;fillColor=none;align=center;verticalAlign=middle;whiteSpace=wrap;rounded=0;fontSize=14;" parent="1" vertex="1">
          <mxGeometry x="-315" y="1200" width="195" height="40" as="geometry" />
        </mxCell>
        <mxCell id="eOLcp72nQjabFm5tdHdw-52" value="Save" style="rounded=1;whiteSpace=wrap;html=1;fontSize=14;" parent="1" vertex="1">
          <mxGeometry x="-590" y="1120" width="90" height="40" as="geometry" />
        </mxCell>
        <mxCell id="eOLcp72nQjabFm5tdHdw-53" value="" style="rounded=1;whiteSpace=wrap;html=1;" parent="1" vertex="1">
          <mxGeometry x="20" y="661" width="320" height="500" as="geometry" />
        </mxCell>
        <mxCell id="eOLcp72nQjabFm5tdHdw-56" value="&lt;span style=&quot;font-size: 13px&quot;&gt;Barcode&lt;/span&gt;" style="rounded=0;whiteSpace=wrap;html=1;fontSize=14;align=left;" parent="1" vertex="1">
          <mxGeometry x="90" y="1005.5" width="180" height="40" as="geometry" />
        </mxCell>
        <mxCell id="eOLcp72nQjabFm5tdHdw-57" value="Scanning Screen" style="text;html=1;strokeColor=none;fillColor=none;align=center;verticalAlign=middle;whiteSpace=wrap;rounded=0;fontSize=14;" parent="1" vertex="1">
          <mxGeometry x="120" y="630" width="120" height="40" as="geometry" />
        </mxCell>
        <mxCell id="eOLcp72nQjabFm5tdHdw-61" style="edgeStyle=orthogonalEdgeStyle;rounded=0;orthogonalLoop=1;jettySize=auto;html=1;fontSize=14;fontColor=#CCCCCC;" parent="1" source="eOLcp72nQjabFm5tdHdw-58" target="eOLcp72nQjabFm5tdHdw-60" edge="1">
          <mxGeometry relative="1" as="geometry" />
        </mxCell>
        <mxCell id="eOLcp72nQjabFm5tdHdw-58" value="Enter" style="rounded=1;whiteSpace=wrap;html=1;fontSize=14;" parent="1" vertex="1">
          <mxGeometry x="200" y="1080" width="90" height="40" as="geometry" />
        </mxCell>
        <mxCell id="eOLcp72nQjabFm5tdHdw-59" value="" style="shape=dataStorage;whiteSpace=wrap;html=1;fontSize=14;fontColor=#CCCCCC;" parent="1" vertex="1">
          <mxGeometry x="60" y="720" width="240" height="210" as="geometry" />
        </mxCell>
        <mxCell id="eOLcp72nQjabFm5tdHdw-60" value="" style="rounded=1;whiteSpace=wrap;html=1;" parent="1" vertex="1">
          <mxGeometry x="460" y="661" width="320" height="500" as="geometry" />
        </mxCell>
        <mxCell id="eOLcp72nQjabFm5tdHdw-62" value="LOGO" style="whiteSpace=wrap;html=1;aspect=fixed;" parent="1" vertex="1">
          <mxGeometry x="565" y="690" width="110" height="110" as="geometry" />
        </mxCell>
        <mxCell id="eOLcp72nQjabFm5tdHdw-69" style="edgeStyle=orthogonalEdgeStyle;rounded=0;orthogonalLoop=1;jettySize=auto;html=1;fontSize=14;fontColor=#CCCCCC;" parent="1" source="eOLcp72nQjabFm5tdHdw-63" target="eOLcp72nQjabFm5tdHdw-68" edge="1">
          <mxGeometry relative="1" as="geometry">
            <mxPoint x="880" y="1360" as="targetPoint" />
            <Array as="points">
              <mxPoint x="810" y="945" />
              <mxPoint x="810" y="1360" />
            </Array>
          </mxGeometry>
        </mxCell>
        <mxCell id="eOLcp72nQjabFm5tdHdw-63" value="&lt;font color=&quot;#000000&quot;&gt;Add Medical prescritption&lt;/font&gt;" style="rounded=1;whiteSpace=wrap;html=1;fontSize=14;fontColor=#0000FF;" parent="1" vertex="1">
          <mxGeometry x="545" y="920" width="150" height="50" as="geometry" />
        </mxCell>
        <mxCell id="eOLcp72nQjabFm5tdHdw-78" style="edgeStyle=orthogonalEdgeStyle;rounded=0;orthogonalLoop=1;jettySize=auto;html=1;fontSize=14;fontColor=#CCCCCC;" parent="1" source="eOLcp72nQjabFm5tdHdw-64" target="eOLcp72nQjabFm5tdHdw-77" edge="1">
          <mxGeometry relative="1" as="geometry">
            <mxPoint x="850" y="405.42855398995533" as="targetPoint" />
            <Array as="points">
              <mxPoint x="820" y="861" />
              <mxPoint x="820" y="370" />
            </Array>
          </mxGeometry>
        </mxCell>
        <mxCell id="eOLcp72nQjabFm5tdHdw-64" value="&lt;font color=&quot;#000000&quot;&gt;View Medical History&lt;/font&gt;" style="rounded=1;whiteSpace=wrap;html=1;fontSize=14;fontColor=#0000FF;" parent="1" vertex="1">
          <mxGeometry x="545" y="836" width="150" height="50" as="geometry" />
        </mxCell>
        <mxCell id="eOLcp72nQjabFm5tdHdw-67" value="Done" style="rounded=1;whiteSpace=wrap;html=1;fontSize=14;" parent="1" vertex="1">
          <mxGeometry x="575" y="1050" width="90" height="40" as="geometry" />
        </mxCell>
        <mxCell id="eOLcp72nQjabFm5tdHdw-68" value="" style="rounded=1;whiteSpace=wrap;html=1;" parent="1" vertex="1">
          <mxGeometry x="460" y="1200" width="320" height="500" as="geometry" />
        </mxCell>
        <mxCell id="eOLcp72nQjabFm5tdHdw-72" value="&lt;div style=&quot;text-align: justify&quot;&gt;&lt;br&gt;&lt;/div&gt;" style="rounded=0;whiteSpace=wrap;html=1;align=left;" parent="1" vertex="1">
          <mxGeometry x="500" y="1270" width="240" height="330" as="geometry" />
        </mxCell>
        <mxCell id="eOLcp72nQjabFm5tdHdw-73" value="Submit" style="rounded=1;whiteSpace=wrap;html=1;fontSize=14;" parent="1" vertex="1">
          <mxGeometry x="665" y="1620" width="90" height="40" as="geometry" />
        </mxCell>
        <mxCell id="eOLcp72nQjabFm5tdHdw-74" value="Patient&#39;s Actions Screen" style="text;html=1;strokeColor=none;fillColor=none;align=center;verticalAlign=middle;whiteSpace=wrap;rounded=0;fontSize=14;" parent="1" vertex="1">
          <mxGeometry x="560" y="620" width="120" height="40" as="geometry" />
        </mxCell>
        <mxCell id="eOLcp72nQjabFm5tdHdw-75" value="Prescription" style="text;html=1;strokeColor=none;fillColor=none;align=center;verticalAlign=middle;whiteSpace=wrap;rounded=0;fontSize=14;fontColor=#000000;" parent="1" vertex="1">
          <mxGeometry x="600" y="1425" width="40" height="20" as="geometry" />
        </mxCell>
        <mxCell id="eOLcp72nQjabFm5tdHdw-76" value="Add Prescription Screen" style="text;html=1;strokeColor=none;fillColor=none;align=center;verticalAlign=middle;whiteSpace=wrap;rounded=0;fontSize=14;" parent="1" vertex="1">
          <mxGeometry x="560" y="1160" width="120" height="40" as="geometry" />
        </mxCell>
        <mxCell id="eOLcp72nQjabFm5tdHdw-77" value="" style="rounded=1;whiteSpace=wrap;html=1;" parent="1" vertex="1">
          <mxGeometry x="470" y="120" width="320" height="500" as="geometry" />
        </mxCell>
        <mxCell id="eOLcp72nQjabFm5tdHdw-79" value="Medical History Screen Search" style="text;html=1;strokeColor=none;fillColor=none;align=center;verticalAlign=middle;whiteSpace=wrap;rounded=0;fontSize=14;" parent="1" vertex="1">
          <mxGeometry x="560" y="80" width="120" height="40" as="geometry" />
        </mxCell>
        <mxCell id="eOLcp72nQjabFm5tdHdw-80" value="LOGO" style="whiteSpace=wrap;html=1;aspect=fixed;" parent="1" vertex="1">
          <mxGeometry x="575" y="150" width="110" height="110" as="geometry" />
        </mxCell>
        <mxCell id="eOLcp72nQjabFm5tdHdw-82" value="&lt;span style=&quot;font-size: 13px&quot;&gt;Date&lt;/span&gt;" style="rounded=0;whiteSpace=wrap;html=1;fontSize=14;align=left;" parent="1" vertex="1">
          <mxGeometry x="540" y="280" width="180" height="40" as="geometry" />
        </mxCell>
        <mxCell id="eOLcp72nQjabFm5tdHdw-83" value="&lt;span style=&quot;font-size: 13px&quot;&gt;Doctor Info.&lt;/span&gt;" style="rounded=0;whiteSpace=wrap;html=1;fontSize=14;align=left;" parent="1" vertex="1">
          <mxGeometry x="540" y="340" width="180" height="40" as="geometry" />
        </mxCell>
        <mxCell id="eOLcp72nQjabFm5tdHdw-84" value="&lt;span style=&quot;font-size: 13px&quot;&gt;Place Info&lt;/span&gt;" style="rounded=0;whiteSpace=wrap;html=1;fontSize=14;align=left;" parent="1" vertex="1">
          <mxGeometry x="540" y="400" width="180" height="40" as="geometry" />
        </mxCell>
        <mxCell id="JzNLaI-71zhe29YT7v8X-7" style="edgeStyle=orthogonalEdgeStyle;rounded=0;orthogonalLoop=1;jettySize=auto;html=1;exitX=0;exitY=0.5;exitDx=0;exitDy=0;entryX=1;entryY=0.75;entryDx=0;entryDy=0;fontColor=#000000;" edge="1" parent="1" source="JzNLaI-71zhe29YT7v8X-2" target="JzNLaI-71zhe29YT7v8X-5">
          <mxGeometry relative="1" as="geometry">
            <Array as="points">
              <mxPoint x="430" y="480" />
              <mxPoint x="430" y="-45" />
            </Array>
          </mxGeometry>
        </mxCell>
        <mxCell id="JzNLaI-71zhe29YT7v8X-2" value="Search" style="rounded=1;whiteSpace=wrap;html=1;fontSize=14;" vertex="1" parent="1">
          <mxGeometry x="575" y="460" width="90" height="40" as="geometry" />
        </mxCell>
        <mxCell id="JzNLaI-71zhe29YT7v8X-3" value="&lt;span style=&quot;font-size: 13px&quot;&gt;Last Name&lt;/span&gt;" style="rounded=0;whiteSpace=wrap;html=1;fontSize=14;align=left;" vertex="1" parent="1">
          <mxGeometry x="-730" y="870" width="180" height="40" as="geometry" />
        </mxCell>
        <mxCell id="JzNLaI-71zhe29YT7v8X-4" value="&lt;span style=&quot;font-size: 13px&quot;&gt;Email&lt;/span&gt;" style="rounded=0;whiteSpace=wrap;html=1;fontSize=14;align=left;" vertex="1" parent="1">
          <mxGeometry x="-730" y="1020" width="180" height="40" as="geometry" />
        </mxCell>
        <mxCell id="JzNLaI-71zhe29YT7v8X-5" value="" style="rounded=1;whiteSpace=wrap;html=1;" vertex="1" parent="1">
          <mxGeometry x="20" y="-420" width="320" height="500" as="geometry" />
        </mxCell>
        <mxCell id="JzNLaI-71zhe29YT7v8X-6" value="Medical History Screen" style="text;html=1;strokeColor=none;fillColor=none;align=center;verticalAlign=middle;whiteSpace=wrap;rounded=0;fontSize=14;" vertex="1" parent="1">
          <mxGeometry x="110" y="-470" width="120" height="40" as="geometry" />
        </mxCell>
        <mxCell id="JzNLaI-71zhe29YT7v8X-13" value="Date &amp;nbsp; &amp;nbsp; &amp;nbsp; &amp;nbsp; &amp;nbsp; &amp;nbsp; &amp;nbsp; &amp;nbsp; &amp;nbsp; &amp;nbsp; &amp;nbsp; &amp;nbsp; &amp;nbsp; &amp;nbsp; &amp;nbsp;Specality" style="rounded=1;whiteSpace=wrap;html=1;fontColor=#000000;align=left;" vertex="1" parent="1">
          <mxGeometry x="20" y="-80" width="320" height="60" as="geometry" />
        </mxCell>
        <mxCell id="JzNLaI-71zhe29YT7v8X-14" value="Date &amp;nbsp; &amp;nbsp; &amp;nbsp; &amp;nbsp; &amp;nbsp; &amp;nbsp; &amp;nbsp; &amp;nbsp; &amp;nbsp; &amp;nbsp; &amp;nbsp; &amp;nbsp; &amp;nbsp; &amp;nbsp; &amp;nbsp;Specality" style="rounded=1;whiteSpace=wrap;html=1;fontColor=#000000;align=left;" vertex="1" parent="1">
          <mxGeometry x="20" y="-140" width="320" height="60" as="geometry" />
        </mxCell>
        <mxCell id="JzNLaI-71zhe29YT7v8X-15" value="Date &amp;nbsp; &amp;nbsp; &amp;nbsp; &amp;nbsp; &amp;nbsp; &amp;nbsp; &amp;nbsp; &amp;nbsp; &amp;nbsp; &amp;nbsp; &amp;nbsp; &amp;nbsp; &amp;nbsp; &amp;nbsp; &amp;nbsp;Specality" style="rounded=1;whiteSpace=wrap;html=1;fontColor=#000000;align=left;" vertex="1" parent="1">
          <mxGeometry x="20" y="-190" width="320" height="60" as="geometry" />
        </mxCell>
        <mxCell id="JzNLaI-71zhe29YT7v8X-16" value="Date &amp;nbsp; &amp;nbsp; &amp;nbsp; &amp;nbsp; &amp;nbsp; &amp;nbsp; &amp;nbsp; &amp;nbsp; &amp;nbsp; &amp;nbsp; &amp;nbsp; &amp;nbsp; &amp;nbsp; &amp;nbsp; &amp;nbsp;Specality" style="rounded=1;whiteSpace=wrap;html=1;fontColor=#000000;align=left;" vertex="1" parent="1">
          <mxGeometry x="20" y="-250" width="320" height="60" as="geometry" />
        </mxCell>
        <mxCell id="JzNLaI-71zhe29YT7v8X-19" style="edgeStyle=orthogonalEdgeStyle;rounded=0;orthogonalLoop=1;jettySize=auto;html=1;exitX=1;exitY=0.5;exitDx=0;exitDy=0;fontColor=#000000;entryX=0.5;entryY=1;entryDx=0;entryDy=0;" edge="1" parent="1" source="JzNLaI-71zhe29YT7v8X-17" target="JzNLaI-71zhe29YT7v8X-20">
          <mxGeometry relative="1" as="geometry">
            <mxPoint x="590" y="-360" as="targetPoint" />
          </mxGeometry>
        </mxCell>
        <mxCell id="JzNLaI-71zhe29YT7v8X-17" value="Date &amp;nbsp; &amp;nbsp; &amp;nbsp; &amp;nbsp; &amp;nbsp; &amp;nbsp; &amp;nbsp; &amp;nbsp; &amp;nbsp; &amp;nbsp; &amp;nbsp; &amp;nbsp; &amp;nbsp; &amp;nbsp; &amp;nbsp;Specality" style="rounded=1;whiteSpace=wrap;html=1;fontColor=#000000;align=left;" vertex="1" parent="1">
          <mxGeometry x="20" y="-310" width="320" height="60" as="geometry" />
        </mxCell>
        <mxCell id="JzNLaI-71zhe29YT7v8X-18" value="LOGO" style="whiteSpace=wrap;html=1;aspect=fixed;" vertex="1" parent="1">
          <mxGeometry x="140" y="-400" width="70" height="70" as="geometry" />
        </mxCell>
        <mxCell id="JzNLaI-71zhe29YT7v8X-20" value="&lt;h1&gt;Expended Widget&lt;/h1&gt;&lt;div&gt;Contains Dr Name and prescription, date, place and DR email and mobile&lt;/div&gt;" style="text;html=1;strokeColor=#666666;fillColor=#f5f5f5;spacing=5;spacingTop=-20;whiteSpace=wrap;overflow=hidden;rounded=0;fontColor=#333333;" vertex="1" parent="1">
          <mxGeometry x="500" y="-510" width="190" height="120" as="geometry" />
        </mxCell>
      </root>
    </mxGraphModel>
  </diagram>
</mxfile>
